<svg width="20" height="20" viewBox="0 0 20 21" fill="none" xmlns="http://www.w3.org/2000/svg">
<path d="M11.6673 2.33398H5.00065C4.55862 2.33398 4.1347 2.50958 3.82214 2.82214C3.50958 3.1347 3.33398 3.55862 3.33398 4.00065V17.334C3.33398 17.776 3.50958 18.1999 3.82214 18.5125C4.1347 18.8251 4.55862 19.0007 5.00065 19.0007H15.0007C15.4427 19.0007 15.8666 18.8251 16.1792 18.5125C16.4917 18.1999 16.6673 17.776 16.6673 17.334V7.33398L11.6673 2.33398Z" stroke="white" stroke-width="2" stroke-linecap="round" stroke-linejoin="round"/>
<path d="M11.666 2.33398V7.33398H16.666" stroke="white" stroke-width="2" stroke-linecap="round" stroke-linejoin="round"/>
<path d="M13.3327 11.5H6.66602" stroke="white" stroke-width="2" stroke-linecap="round" stroke-linejoin="round"/>
<path d="M13.3327 14.834H6.66602" stroke="white" stroke-width="2" stroke-linecap="round" stroke-linejoin="round"/>
<path d="M8.33268 8.16699H7.49935H6.66602" stroke="white" stroke-width="2" stroke-linecap="round" stroke-linejoin="round"/>
</svg>
