<svg width="20" height="20" viewBox="0 0 20 20" fill="none" xmlns="http://www.w3.org/2000/svg">
<g clip-path="url(#clip0_2160_4960)">
<path d="M4.16602 4.58366C4.16602 3.81011 4.47331 3.06825 5.02029 2.52126C5.56727 1.97428 6.30913 1.66699 7.08268 1.66699H9.99935V7.50033H7.08268C6.30913 7.50033 5.56727 7.19303 5.02029 6.64605C4.47331 6.09907 4.16602 5.35721 4.16602 4.58366Z" stroke="white" stroke-width="2" stroke-linecap="round" stroke-linejoin="round"/>
<path d="M10 1.66699H12.9167C13.2997 1.66699 13.679 1.74243 14.0328 1.88901C14.3867 2.03559 14.7082 2.25043 14.9791 2.52126C15.2499 2.7921 15.4647 3.11363 15.6113 3.4675C15.7579 3.82137 15.8333 4.20064 15.8333 4.58366C15.8333 4.96668 15.7579 5.34595 15.6113 5.69982C15.4647 6.05369 15.2499 6.37522 14.9791 6.64605C14.7082 6.91689 14.3867 7.13173 14.0328 7.27831C13.679 7.42488 13.2997 7.50033 12.9167 7.50033H10V1.66699Z" stroke="white" stroke-width="2" stroke-linecap="round" stroke-linejoin="round"/>
<path d="M10 10.4167C10 10.0336 10.0754 9.65437 10.222 9.30051C10.3686 8.94664 10.5834 8.62511 10.8543 8.35427C11.1251 8.08343 11.4466 7.86859 11.8005 7.72202C12.1544 7.57544 12.5336 7.5 12.9167 7.5C13.2997 7.5 13.679 7.57544 14.0328 7.72202C14.3867 7.86859 14.7082 8.08343 14.9791 8.35427C15.2499 8.62511 15.4647 8.94664 15.6113 9.30051C15.7579 9.65437 15.8333 10.0336 15.8333 10.4167C15.8333 10.7997 15.7579 11.179 15.6113 11.5328C15.4647 11.8867 15.2499 12.2082 14.9791 12.4791C14.7082 12.7499 14.3867 12.9647 14.0328 13.1113C13.679 13.2579 13.2997 13.3333 12.9167 13.3333C12.5336 13.3333 12.1544 13.2579 11.8005 13.1113C11.4466 12.9647 11.1251 12.7499 10.8543 12.4791C10.5834 12.2082 10.3686 11.8867 10.222 11.5328C10.0754 11.179 10 10.7997 10 10.4167Z" stroke="white" stroke-width="2" stroke-linecap="round" stroke-linejoin="round"/>
<path d="M4.16602 16.2497C4.16602 15.4761 4.47331 14.7343 5.02029 14.1873C5.56727 13.6403 6.30913 13.333 7.08268 13.333H9.99935V16.2497C9.99935 17.0232 9.69206 17.7651 9.14508 18.3121C8.5981 18.8591 7.85623 19.1663 7.08268 19.1663C6.30913 19.1663 5.56727 18.8591 5.02029 18.3121C4.47331 17.7651 4.16602 17.0232 4.16602 16.2497Z" stroke="white" stroke-width="2" stroke-linecap="round" stroke-linejoin="round"/>
<path d="M4.16602 10.4167C4.16602 9.64312 4.47331 8.90125 5.02029 8.35427C5.56727 7.80729 6.30913 7.5 7.08268 7.5H9.99935V13.3333H7.08268C6.30913 13.3333 5.56727 13.026 5.02029 12.4791C4.47331 11.9321 4.16602 11.1902 4.16602 10.4167Z" stroke="white" stroke-width="2" stroke-linecap="round" stroke-linejoin="round"/>
</g>
<defs>
<clipPath id="clip0_2160_4960">
<rect width="20" height="20" fill="white"/>
</clipPath>
</defs>
</svg>
