<svg width="20" height="20" viewBox="0 0 21 20" fill="none" xmlns="http://www.w3.org/2000/svg">
<path d="M17.166 3.33301H3.83268C2.91602 3.33301 2.17435 4.08301 2.17435 4.99967L2.16602 14.9997C2.16602 15.9163 2.91602 16.6663 3.83268 16.6663H17.166C18.0827 16.6663 18.8327 15.9163 18.8327 14.9997V4.99967C18.8327 4.08301 18.0827 3.33301 17.166 3.33301ZM16.8327 6.87467L10.941 10.558C10.6743 10.7247 10.3243 10.7247 10.0577 10.558L4.16602 6.87467C4.08246 6.82777 4.00928 6.76439 3.95092 6.68839C3.89256 6.61238 3.85023 6.52532 3.8265 6.43248C3.80276 6.33964 3.7981 6.24295 3.81281 6.14826C3.82752 6.05357 3.8613 5.96285 3.91208 5.88159C3.96287 5.80033 4.02962 5.73022 4.10829 5.6755C4.18696 5.62079 4.27591 5.5826 4.36976 5.56326C4.46362 5.54391 4.56042 5.54381 4.65431 5.56296C4.7482 5.58212 4.83724 5.62012 4.91602 5.67467L10.4993 9.16634L16.0827 5.67467C16.1615 5.62012 16.2505 5.58212 16.3444 5.56296C16.4383 5.54381 16.5351 5.54391 16.6289 5.56326C16.7228 5.5826 16.8117 5.62079 16.8904 5.6755C16.9691 5.73022 17.0358 5.80033 17.0866 5.88159C17.1374 5.96285 17.1712 6.05357 17.1859 6.14826C17.2006 6.24295 17.1959 6.33964 17.1722 6.43248C17.1485 6.52532 17.1061 6.61238 17.0478 6.68839C16.9894 6.76439 16.9162 6.82777 16.8327 6.87467Z" fill="white"/>
</svg>
