<svg width="20" height="20" viewBox="0 0 21 20" fill="none" xmlns="http://www.w3.org/2000/svg">
<g clip-path="url(#clip0_2160_946)">
<path d="M20.4261 3.84788L20.4261 3.84791L17.4083 16.3008C17.4082 16.3009 17.4082 16.3009 17.4082 16.301C17.295 16.7377 17.092 17.0066 16.816 17.1169C16.5397 17.2272 16.1856 17.1805 15.7659 16.9747L11.1685 14.0103L11.1588 14.0041L11.1499 14.0115L8.93117 15.8787L8.93095 15.8789C8.80795 15.9865 8.69664 16.0838 8.55748 16.1546C8.42211 16.2234 8.25966 16.2674 8.03407 16.2695L8.36251 12.1956L16.8794 5.46156C16.8794 5.46155 16.8794 5.46154 16.8795 5.46153C16.9728 5.3887 17.0191 5.32068 17.0214 5.26226C17.024 5.20087 16.9786 5.15845 16.9113 5.13745C16.8438 5.11639 16.7497 5.11477 16.642 5.13619C16.5341 5.15766 16.4114 5.20247 16.2862 5.27549C16.2862 5.27552 16.2861 5.27556 16.286 5.27559L5.75621 11.077L1.22661 9.83652L1.2266 9.83651C0.981078 9.76944 0.797304 9.68255 0.678147 9.58446C0.559151 9.48649 0.506021 9.37873 0.51705 9.26867C0.528156 9.15784 0.60472 9.03985 0.756166 8.92298C0.907372 8.80629 1.13136 8.69223 1.4329 8.58903L19.1738 2.60862C19.1738 2.60861 19.1738 2.6086 19.1739 2.6086C19.5814 2.47488 19.9601 2.51569 20.2035 2.7219C20.4462 2.92764 20.5592 3.30239 20.4261 3.84788Z" fill="white" stroke="white" stroke-width="0.03125"/>
</g>
<defs>
<clipPath id="clip0_2160_946">
<rect width="20" height="20" fill="white" transform="translate(0.5)"/>
</clipPath>
</defs>
</svg>
