<svg width="20" height="20" viewBox="0 0 21 20" fill="none" xmlns="http://www.w3.org/2000/svg">
<g clip-path="url(#clip0_2160_939)">
<path d="M17.0082 10.4604C17.0164 10.472 17.0343 10.4925 17.0597 10.5201C17.0857 10.5483 17.1202 10.5847 17.1622 10.6285C17.2072 10.6755 17.2609 10.731 17.3217 10.7939C17.3743 10.8484 17.4322 10.9084 17.4946 10.9731C17.7637 11.2526 18.1153 11.6222 18.4753 12.0247C18.8354 12.4273 19.2038 12.8627 19.5063 13.274C19.809 13.6855 20.0448 14.0715 20.1413 14.3756C20.2255 14.6646 20.1934 14.8781 20.0728 15.0192C19.9516 15.161 19.7376 15.2344 19.4479 15.2344H17.4028C17.2107 15.2344 17.0531 15.1956 16.9029 15.1159C16.7525 15.036 16.6088 14.9147 16.4452 14.7486C16.3127 14.6142 16.1679 14.4511 15.9961 14.2576C15.9554 14.2119 15.9133 14.1645 15.8695 14.1154C15.6405 13.8585 15.3655 13.5553 15.0181 13.2035L15.0179 13.2033C13.8023 12.0183 13.2775 11.8594 12.9687 11.8594C12.8058 11.8594 12.686 11.8729 12.6007 11.9336C12.5147 11.9948 12.4674 12.1014 12.4411 12.277C12.4149 12.4528 12.4093 12.7018 12.4102 13.0527C12.4105 13.1919 12.4119 13.3472 12.4134 13.5204C12.4157 13.7844 12.4184 14.0902 12.4184 14.4449C12.4184 14.6985 12.3786 14.8927 12.1826 15.0257C11.9843 15.1603 11.6233 15.2344 10.9722 15.2344C8.81186 15.2344 6.4343 13.9055 4.74551 11.4513L4.74541 11.4512C3.47699 9.65211 2.6694 8.072 2.17896 6.87338C1.93373 6.27406 1.76783 5.77019 1.66325 5.38208C1.55856 4.99353 1.51562 4.72206 1.51562 4.58711C1.51562 4.43399 1.54492 4.29211 1.64329 4.18829C1.74156 4.08457 1.91187 4.01562 2.20139 4.01562H4.24653C4.50624 4.01562 4.68245 4.07301 4.81882 4.19912C4.95599 4.32597 5.05479 4.52401 5.15537 4.81017C5.65574 6.2878 6.32811 7.67227 6.96244 8.68758C7.27959 9.19519 7.58749 9.61097 7.85994 9.90005C7.99615 10.0446 8.12384 10.1578 8.23974 10.235C8.35533 10.312 8.46076 10.3543 8.55208 10.3543C8.61822 10.3543 8.677 10.3465 8.72762 10.3232C8.77867 10.2997 8.82023 10.2609 8.85271 10.2011C8.91688 10.083 8.94618 9.88149 8.94618 9.54766V6.49609H8.9462L8.94616 6.49525C8.90779 5.78886 8.70349 5.40544 8.50831 5.13605C8.46228 5.07251 8.4168 5.01537 8.37439 4.9621L8.36722 4.95309C8.32269 4.89713 8.2819 4.84549 8.24718 4.79452C8.1779 4.69283 8.13368 4.59506 8.13368 4.47461C8.13368 4.25461 8.32124 4.01562 8.63889 4.01562H11.8542C12.0666 4.01562 12.2049 4.07357 12.2912 4.19285C12.3784 4.31344 12.4149 4.49986 12.4149 4.76289V8.86562C12.4149 9.30814 12.6152 9.47539 12.7569 9.47539C13.0249 9.47539 13.2481 9.31514 13.7229 8.83442L13.7229 8.83443L13.7235 8.83378C14.4609 7.99919 15.09 6.93882 15.5347 6.08761C15.7571 5.6619 15.9334 5.28831 16.0542 5.02113C16.1145 4.88754 16.161 4.78054 16.1924 4.70692C16.2081 4.67011 16.2201 4.64164 16.2281 4.62237L16.2371 4.60046L16.2394 4.59488L16.24 4.59346L16.2401 4.5931C16.2401 4.59307 16.2401 4.59305 16.2402 4.59302C16.3037 4.43993 16.3943 4.29582 16.5325 4.18994C16.6705 4.0842 16.8571 4.01562 17.1146 4.01562H19.1597C19.4667 4.01562 19.6468 4.09598 19.7358 4.2255C19.8251 4.35544 19.8266 4.54032 19.7627 4.75849L19.7625 4.75963C19.6988 5.05868 19.4956 5.50537 19.2253 6.0086C18.9553 6.51132 18.6193 7.06886 18.291 7.58902C17.9628 8.10916 17.6425 8.59175 17.404 8.94455C17.2847 9.12094 17.186 9.26487 17.1169 9.3648C17.0824 9.41477 17.0553 9.45374 17.0367 9.48026L17.0155 9.51053L17.0101 9.5183L17.0096 9.51896M17.0082 10.4604C17.0082 10.4603 17.0081 10.4602 17.008 10.4601L17.0208 10.4512L17.0084 10.4607C17.0084 10.4606 17.0083 10.4605 17.0082 10.4604ZM17.0082 10.4604C16.8564 10.2625 16.8 10.1163 16.8112 9.97357C16.8224 9.83206 16.9003 9.69698 17.0075 9.52192L17.0094 9.5188L17.0096 9.51896M17.0096 9.51896L17.0087 9.52024L17.0084 9.52057L17.0097 9.5191L17.0096 9.51896ZM17.1146 4C16.5937 4 16.3542 4.27773 16.2257 4.58711L19.7778 4.76289C19.9062 4.32344 19.7778 4 19.1597 4H17.1146Z" fill="white" stroke="white" stroke-width="0.03125"/>
</g>
<defs>
<clipPath id="clip0_2160_939">
<rect width="20" height="20" fill="white" transform="translate(0.5)"/>
</clipPath>
</defs>
</svg>
